USFL
nRows=183
nColumns=2
inDegrees=yes
endheader
time	soleus_r	
3.56227	 30.004027	
3.62477	 30.073615	
3.68726	 30.244063	
3.74976	 30.283367	
3.81226	 30.329809	
3.87475	 30.355221	
3.93725	 30.340189	
3.99974	 30.388470	
4.06224	 30.387582	
4.12474	 30.378475	
4.18723	 30.425679	
4.24973	 30.411971	
4.31222	 30.422879	
4.37472	 30.459014	
4.43722	 30.462295	
4.49971	 30.463104	
4.56221	 30.538064	
4.6247	 30.541578	
4.6872	 30.504261	
4.7497	 30.591485	
4.81219	 30.616873	
4.87469	 30.590898	
4.93718	 30.693075	
4.99968	 30.688065	
5.06218	 30.654838	
5.12467	 30.700992	
5.18717	 30.684621	
5.24966	 30.662293	
5.31216	 30.783369	
5.37466	 30.780183	
5.43715	 30.735290	
5.49965	 30.780584	
5.56214	 30.770198	
5.62464	 30.747698	
5.68714	 30.704445	
5.74963	 30.607714	
5.81213	 30.607907	
5.87462	 30.543630	
5.93712	 30.596370	
5.99962	 30.573344	
6.06211	 30.618898	
6.12461	 30.638794	
6.1871	 30.542804	
6.2496	 30.517051	
6.3121	 30.417162	
6.37459	 30.400001	
6.43709	 30.420595	
6.49958	 30.359503	
6.56208	 30.335295	
6.62458	 30.358453	
6.68707	 30.288690	
6.74957	 30.216477	
6.81206	 30.253858	
6.87456	 30.284691	
6.93706	 30.235623	
6.99955	 30.304537	
7.06205	 30.285216	
7.12454	 30.281415	
7.18704	 30.358612	
7.24954	 30.434690	
7.31203	 30.434350	
7.37453	 30.453775	
7.43702	 30.484269	
7.49952	 30.479532	
7.56202	 30.570943	
7.62451	 30.628701	
7.68701	 30.661318	
7.7495	 30.683784	
7.812	 30.739421	
7.8745	 30.687908	
7.93699	 30.834028	
7.99949	 30.854638	
8.06198	 30.746620	
8.12448	 30.863644	
8.18698	 30.904276	
8.24947	 30.922566	
8.31197	 31.018347	
8.37446	 31.040205	
8.43696	 31.034018	
8.49946	 31.081299	
8.56195	 31.022208	
8.62445	 30.967888	
8.68694	 31.020981	
8.74944	 31.049669	
8.81194	 31.072622	
8.87443	 31.078191	
8.93693	 31.022601	
8.99942	 30.972026	
9.06192	 31.043007	
9.12442	 31.185057	
9.18691	 31.171803	
9.24941	 31.280963	
9.3119	 31.329087	
9.3744	 31.299378	
9.4369	 31.326596	
9.49939	 31.333755	
9.56189	 31.324617	
9.62438	 31.356243	
9.68688	 31.353411	
9.74938	 31.330759	
9.81187	 31.330114	
9.87437	 31.302807	
9.93686	 31.238744	
9.99936	 31.211668	
10.0619	 31.205555	
10.1244	 31.217685	
10.1868	 31.251281	
10.2493	 31.299987	
10.3118	 31.309100	
10.3743	 31.349587	
10.4368	 31.361820	
10.4993	 31.356710	
10.5618	 31.395848	
10.6243	 31.407892	
10.6868	 31.382442	
10.7493	 31.379167	
10.8118	 31.356542	
10.8743	 31.367203	
10.9368	 31.363971	
10.9993	 31.383841	
11.0618	 31.409538	
11.1243	 31.387047	
11.1868	 31.431855	
11.2493	 31.482878	
11.3118	 31.460167	
11.3743	 31.444560	
11.4368	 31.472196	
11.4993	 31.470563	
11.5618	 31.526399	
11.6243	 31.541790	
11.6868	 31.452021	
11.7492	 31.460216	
11.8117	 31.492327	
11.8742	 31.441462	
11.9367	 31.412771	
11.9992	 31.436599	
12.0617	 31.404940	
12.1242	 31.384815	
12.1867	 31.387381	
12.2492	 31.382409	
12.3117	 31.398643	
12.3742	 31.407918	
12.4367	 31.398161	
12.4992	 31.374246	
12.5617	 31.436290	
12.6242	 31.438811	
12.6867	 31.406234	
12.7492	 31.428790	
12.8117	 31.401111	
12.8742	 31.358346	
12.9367	 31.371345	
12.9992	 31.327447	
13.0617	 31.285354	
13.1242	 31.279302	
13.1867	 31.209061	
13.2492	 31.199706	
13.3116	 31.253122	
13.3741	 31.214407	
13.4366	 31.194039	
13.4991	 31.180299	
13.5616	 31.145822	
13.6241	 31.153346	
13.6866	 31.147245	
13.7491	 31.146748	
13.8116	 31.152443	
13.8741	 31.162295	
13.9366	 31.122293	
13.9991	 31.093473	
14.0616	 31.083053	
14.1241	 30.998481	
14.1866	 30.986071	
14.2491	 31.001116	
14.3116	 31.053221	
14.3741	 31.163975	
14.4366	 31.164423	
14.4991	 31.191080	
14.5616	 31.168195	
14.6241	 31.169844	
14.6866	 31.186846	
14.7491	 31.181222	
14.8116	 31.181656	
14.874	 31.185544	
14.9365	 31.219549	
